<svg xmlns="http://www.w3.org/2000/svg" viewBox="0 0 25 25"><defs><style>.a{fill:#4285f4;}.a,.b,.c,.d{fill-rule:evenodd;}.b{fill:#34a853;}.c{fill:#fbbc05;}.d{fill:#ea4335;}.e{fill:none;}</style></defs><title>google icon</title><path class="a" d="M24.5,12.78a14.14,14.14,0,0,0-.23-2.55H12.5v4.83h6.73a5.74,5.74,0,0,1-2.5,3.78V22h4a12.16,12.16,0,0,0,3.73-9.19Z"/><path class="b" d="M12.5,25a11.92,11.92,0,0,0,8.27-3l-4-3.13a7.54,7.54,0,0,1-11.22-4H1.33v3.23A12.49,12.49,0,0,0,12.5,25Z"/><path class="c" d="M5.51,14.88a7.28,7.28,0,0,1,0-4.76V6.89H1.33a12.5,12.5,0,0,0,0,11.22l4.18-3.23Z"/><path class="d" d="M12.5,5a6.75,6.75,0,0,1,4.78,1.87l3.58-3.58A12,12,0,0,0,12.5,0,12.49,12.49,0,0,0,1.33,6.89l4.18,3.23A7.44,7.44,0,0,1,12.5,5Z"/><path class="e" d="M0,0H25V25H0Z"/></svg>
