<?xml version="1.0" encoding="utf-8"?>
<!-- Generator: Adobe Illustrator 22.0.0, SVG Export Plug-In . SVG Version: 6.00 Build 0)  -->
<svg version="1.1" id="Layer_1" xmlns="http://www.w3.org/2000/svg" xmlns:xlink="http://www.w3.org/1999/xlink" x="0px" y="0px"
	 viewBox="0 0 697.9 206.8" style="enable-background:new 0 0 697.9 206.8;" xml:space="preserve">
<style type="text/css">
	.st0{fill:#325CE6;}
	.st1{fill:#FFFFFF;}
	.st2{font-family:'CenturyGothic-Bold';}
	.st3{font-size:85.8394px;}
	.st4{fill:#9E9E9E;}
	.st5{font-family:'MyriadPro-Regular';}
	.st6{font-size:38px;}
</style>
<path class="st0" d="M53.2,44.4c8.2-7.4,18-13.2,28.8-16.5L76,7.3c-14.3,4.4-27.2,12-37.8,22L53.2,44.4L53.2,44.4z"/>
<path class="st0" d="M88.5,26.2c5.3-1.1,10.7-1.7,16.3-1.7c5.6,0,11,0.6,16.2,1.7l0,0l5.6-20.7c-7.1-1.6-14.5-2.5-22-2.5
	C97.2,3,89.9,3.8,83,5.4L88.5,26.2L88.5,26.2z"/>
<path class="st0" d="M161.1,49.1c7.6,8.2,13.4,18.1,16.8,29l20-5.6c-4.3-14.4-11.8-27.4-21.6-38.1L161.1,49.1L161.1,49.1z"/>
<path class="st0" d="M31.7,123.5l-19.8,6c4.4,14.1,11.9,26.7,21.7,37.3l14.5-14.7C40.7,144,35,134.3,31.7,123.5z"/>
<path class="st0" d="M121.3,175.5c-5.3,1.2-10.8,1.8-16.5,1.8c-5.6,0-11.2-0.6-16.5-1.8l0,0l-5,19.9c6.9,1.5,14,2.4,21.3,2.4
	c7.5,0,14.9-0.9,22-2.5l0,0L121.3,175.5z"/>
<path class="st0" d="M127.6,173.8l5.9,19.5c14.1-4.4,26.9-11.9,37.4-21.8l-14.6-14.2C148.2,164.8,138.4,170.5,127.6,173.8z"/>
<path class="st0" d="M199.5,78.9l-20.1,5l0,0c1.2,5.5,1.9,11.2,1.9,17c0,5.6-0.6,11-1.7,16.2l19.7,5.6c1.7-7.2,2.6-14.6,2.6-22.3
	C201.9,93,201.1,85.8,199.5,78.9z"/>
<path class="st0" d="M177.8,124c-3.4,10.7-9,20.3-16.4,28.4l0,0l14.6,14.2c9.7-10.5,17.1-23.1,21.5-37L177.8,124L177.8,124z"/>
<path class="st0" d="M48.3,49.3L48.3,49.3l-15.1-15c-9.9,10.7-17.4,23.7-21.7,38l20.3,5.5C35.3,67,41,57.3,48.3,49.3z"/>
<path class="st0" d="M28.3,100.9c0-5.7,0.6-11.3,1.8-16.6l0,0L9.7,79.2C8.2,86,7.4,93.1,7.4,100.4c0,7.6,0.9,15.1,2.5,22.2l20.1-5.3
	C28.9,112,28.3,106.5,28.3,100.9z"/>
<path class="st0" d="M53,157.1L53,157.1l-13.8,15.2c10.5,9.6,23.2,16.9,37.1,21.2l5.3-19.8C70.8,170.3,61.1,164.6,53,157.1z"/>
<path class="st0" d="M83,57c5.6-2.8,11.8-4.5,18.4-4.9v-21c-10.2,0.5-19.9,3.2-28.5,7.6L83,57L83,57z"/>
<path class="st0" d="M64.2,73.3c3.5-5.2,8.1-9.6,13.3-13.1L67.1,42.1c-8.4,5.4-15.5,12.6-20.9,21L64.2,73.3L64.2,73.3z"/>
<path class="st0" d="M60.7,79.2L60.7,79.2l-18-10.1c-4.3,8.6-6.9,18.1-7.4,28.3h20.5C56.3,90.9,58,84.7,60.7,79.2z"/>
<path class="st0" d="M153.2,96.8h20.7c-0.5-10-3.1-19.4-7.4-27.8l-18,10.4C151.1,84.8,152.7,90.6,153.2,96.8z"/>
<path class="st0" d="M107.9,52.1c6.6,0.5,12.9,2.2,18.5,5l10.2-18.3c-8.7-4.5-18.5-7.3-28.9-7.8v20.7L107.9,52.1z"/>
<path class="st0" d="M64.3,128l-17.6,10.3c5.3,8.1,12.3,14.9,20.5,20.2l10-17.8C72.2,137.4,67.8,133,64.3,128z"/>
<path class="st0" d="M131.9,60.3c5.2,3.5,9.7,8,13.2,13.2l0,0l18.1-10.4c-5.3-8.2-12.2-15.3-20.3-20.7L131.9,60.3L131.9,60.3z"/>
<path class="st0" d="M101,148.9L101,148.9c-6.3-0.5-12.3-2.1-17.7-4.7l0,0l-10,17.8c8.4,4.3,17.8,6.9,27.7,7.4l0,0V148.9z"/>
<path class="st0" d="M107.8,148.9L107.8,148.9l0.5,20.5c10-0.5,19.4-3.1,27.8-7.4l-10.1-17.8C120.4,146.8,114.2,148.5,107.8,148.9z"
	/>
<path class="st0" d="M131.7,140.8L131.7,140.8l10.6,17.5c8.1-5.2,15-12.1,20.3-20.1l-17.7-10.5C141.4,132.9,136.9,137.4,131.7,140.8
	z"/>
<path class="st0" d="M153.2,104.1c-0.5,6.3-2.1,12.2-4.7,17.6l17.7,10.6c4.5-8.5,7.2-18.1,7.7-28.2H153.2z"/>
<ellipse class="st0" cx="105" cy="100.7" rx="42.1" ry="41.4"/>
<text transform="matrix(1 0 0 1 227.9188 130.5991)" class="st1 st2 st3">SPACEBASE</text>
<text transform="matrix(1 0 0 1 624.4417 179.5234)" class="st4 st5 st6">beta</text>
</svg>
